PathFileType	4	(x/y/z)	A01_SLOW_T0029.trc
DataRate	CameraRate	NumFrames	NumMarkers	Units	OrigDataRate	OrigDataStartFrame	OrigNumFrames
240	240	9	48	mm	240	179	357
Frame#	Time	TOP_HEAD			R_AC			L_AC			R_ASIS			L_ASIS			R_PSIS			L_PSIS			SACRAL			L_IC			R_IC			L_GT			R_GT			R_LAT_KNEE			R_MED_KNEE			L_MED_KNEE			L_LAT_KNEE			R_TOE			L_TOE			R_1ST_MET			L_1ST_MET			L_5TH_MET			R_5TH_MET			R_LAT_ANK			R_MED_ANK			L_MED_ANK			L_LAT_ANK			L_HEEL_SUP			R_HEEL_SUP			L_HEEL_LAT			R_HEEL_LAT			L_HEEL_MED			R_HEEL_MED			R_LL_PROX_POST			R_LL_PROX_ANT			R_LL_DIST_ANT			R_LL_DIST_POST			R_THIGH_PROX_POST			R_THIGH_PROX_ANT			R_THIGH_DIST_ANT			R_THIGH_DIST_POST			L_PROS_PROX_ANT			L_PROS_PROX_POST			L_PROS_DIST_POST			L_PROS_DIST_ANT			L_THIGH_PROX_ANT			L_THIGH_PROX_POST			L_THIGH_DIST_POST			L_THIGH_DIST_ANT			
		X1	Y1	Z1	X2	Y2	Z2	X3	Y3	Z3	X4	Y4	Z4	X5	Y5	Z5	X6	Y6	Z6	X7	Y7	Z7	X8	Y8	Z8	X9	Y9	Z9	X10	Y10	Z10	X11	Y11	Z11	X12	Y12	Z12	X13	Y13	Z13	X14	Y14	Z14	X15	Y15	Z15	X16	Y16	Z16	X17	Y17	Z17	X18	Y18	Z18	X19	Y19	Z19	X20	Y20	Z20	X21	Y21	Z21	X22	Y22	Z22	X23	Y23	Z23	X24	Y24	Z24	X25	Y25	Z25	X26	Y26	Z26	X27	Y27	Z27	X28	Y28	Z28	X29	Y29	Z29	X30	Y30	Z30	X31	Y31	Z31	X32	Y32	Z32	X33	Y33	Z33	X34	Y34	Z34	X35	Y35	Z35	X36	Y36	Z36	X37	Y37	Z37	X38	Y38	Z38	X39	Y39	Z39	X40	Y40	Z40	X41	Y41	Z41	X42	Y42	Z42	X43	Y43	Z43	X44	Y44	Z44	X45	Y45	Z45	X46	Y46	Z46	X47	Y47	Z47	X48	Y48	Z48	

179	0.74375	111.68	1725.6	297.02	-141.08	1532	535.94	-133.14	1529.1	74.916	-128.4	1071.8	517.14	-139.62	1002.5	164.35	-349.72	1062.9	403.51	-344.18	1073.2	271.2	-365.68	1040	336.32	-161.32	1125	123.29	-168.55	1171.1	525.85	-219.52	931.31	129.01	-178.35	957.43	562.48	-56.893	566.85	498.3	-33.385	573.38	364.51	-296.44	543.11	361.72	-312.55	551.82	204.77	336.72	227.59	427.98	-320.91	72.649	276.96	283.58	165.61	376.53	-404.8	57.721	331.22	-434.35	50.759	205.3	260.98	137.17	506.5	129.6	129.63	478.58	130.72	140.75	377.74	-501.59	153.65	313.31	-535.04	153.59	244.15	-637.25	119.14	285.4	64.227	46.943	415.98	-632.75	88.196	254.58	84.231	29.413	451.01	-623.26	87.567	318.48	91.404	31.063	391.26	-71.714	364.66	499.23	-5.1074	386.27	522.94	29.976	320.32	508.6	-19.812	299.02	492.93	-172.33	806.22	542.38	-110.6	843.92	549.79	-81.094	758.1	538.25	-139.69	722.73	528.67	-301.94	458.31	220.25	-352.81	478.99	208.49	-382.62	424.26	218.62	-330.67	410.6	228.2	-191.77	778.99	171.73	-258.15	800.19	154.84	-264.88	725.37	170.13	-204.45	707.09	185.54
180	0.74793	116.6	1725	298.06	-135.77	1530.8	536.93	-128.18	1528.5	75.91	-122.62	1070.9	517.27	-135.23	1001.6	164.48	-344.4	1062.2	404.6	-339.27	1072.6	272.29	-360.58	1039.4	337.43	-156.82	1124.5	123.71	-162.87	1170.2	526.42	-215.45	930.72	129.32	-172.36	956.56	562.74	-50.98	566.09	498.14	-28.294	572.58	364.41	-293.53	542.59	361.7	-309.54	551.37	204.77	341.35	225.95	425.29	-320.63	72.425	276.94	287.74	163.99	374.38	-404.54	57.845	331.18	-434.11	50.936	205.27	265.91	135.94	504.54	134.49	128.7	477.59	134.9	139.58	376.68	-500.81	154.24	313.24	-534.22	154.35	244.06	-636.69	120.37	285.28	68.309	46.372	415.52	-632.33	89.397	254.49	88.432	28.867	450.53	-622.86	88.769	318.38	95.24	30.276	390.69	-66.157	363.96	499.42	0.68002	385.43	522.59	35.53	319.42	508.05	-14.419	298.21	492.78	-166.28	805.43	542.69	-104.55	843.24	549.82	-75.067	757.44	538.12	-133.66	722	528.83	-299.46	457.81	220.25	-350.21	478.77	208.46	-380.33	424.2	218.59	-328.45	410.26	228.17	-188.13	778.26	171.85	-254.46	799.72	155.07	-261.48	724.9	170.32	-201.05	706.39	185.6
181	0.75211	121.5	1724.4	299.11	-130.44	1529.6	537.93	-123.19	1528	76.923	-116.79	1070	517.41	-130.79	1000.8	164.62	-339.04	1061.5	405.7	-334.33	1072	273.39	-355.44	1038.8	338.55	-152.29	1123.9	124.14	-157.16	1169.3	527	-211.31	930.11	129.64	-166.29	955.71	563.01	-44.993	565.35	497.97	-23.127	571.77	364.33	-290.52	542.05	361.69	-306.43	550.9	204.77	345.79	223.87	422.49	-320.33	72.191	276.92	291.59	161.99	372.17	-404.28	57.979	331.14	-433.85	51.128	205.23	270.55	134.44	502.54	139.1	127.69	476.61	138.77	138.29	375.63	-499.99	154.86	313.16	-533.36	155.15	243.97	-636.09	121.67	285.16	71.945	45.84	415.11	-631.9	90.662	254.41	92.17	28.352	450.11	-622.43	90.031	318.27	98.584	29.472	390.19	-60.647	363.32	499.66	6.4439	384.6	522.25	40.995	318.49	507.5	-9.1375	297.41	492.67	-160.16	804.66	542.99	-98.432	842.58	549.84	-68.96	756.81	538	-127.55	721.3	528.98	-296.89	457.29	220.24	-347.53	478.55	208.44	-377.96	424.14	218.56	-326.16	409.92	228.15	-184.42	777.53	171.99	-250.7	799.24	155.32	-258.01	724.4	170.53	-197.57	705.69	185.68
182	0.75629	126.41	1723.8	300.15	-125.09	1528.4	538.95	-118.18	1527.4	77.954	-110.93	1069.2	517.56	-126.3	999.93	164.77	-333.66	1060.8	406.79	-329.37	1071.4	274.49	-350.25	1038.1	339.67	-147.73	1123.4	124.57	-151.42	1168.3	527.59	-207.13	929.49	129.97	-160.17	954.87	563.29	-38.945	564.64	497.8	-17.906	570.97	364.25	-287.4	541.5	361.69	-303.22	550.43	204.78	350.06	221.37	419.61	-320.02	71.948	276.9	295.17	159.63	369.92	-403.99	58.123	331.11	-433.57	51.336	205.19	274.9	132.69	500.51	143.43	126.61	475.65	142.34	136.89	374.58	-499.13	155.52	313.09	-532.47	156	243.9	-635.45	123.04	285.05	75.159	45.364	414.76	-631.43	91.997	254.34	95.468	27.886	449.75	-621.97	91.358	318.17	101.46	28.674	389.74	-55.182	362.74	499.95	12.186	383.79	521.91	46.376	317.55	506.95	-3.9589	296.63	492.61	-153.98	803.91	543.29	-92.27	841.95	549.85	-62.784	756.22	537.86	-121.36	720.61	529.13	-294.23	456.77	220.25	-344.74	478.33	208.43	-375.5	424.09	218.54	-323.78	409.58	228.14	-180.65	776.79	172.14	-246.88	798.73	155.58	-254.46	723.9	170.75	-194.02	704.98	185.77
183	0.76046	131.31	1723.3	301.18	-119.71	1527.1	539.97	-113.16	1526.9	79.004	-105.02	1068.3	517.72	-121.77	999.07	164.94	-328.24	1060.1	407.89	-324.39	1070.8	275.6	-345.03	1037.4	340.79	-143.13	1122.8	125.02	-145.64	1167.4	528.2	-202.89	928.85	130.32	-153.99	954.04	563.58	-32.85	563.96	497.63	-12.652	570.17	364.17	-284.18	540.93	361.69	-299.89	549.95	204.81	354.19	218.45	416.65	-319.69	71.693	276.87	298.49	156.93	367.65	-403.68	58.279	331.08	-433.28	51.564	205.15	278.99	130.7	498.45	147.52	125.48	474.72	145.65	135.41	373.55	-498.23	156.21	313.01	-531.53	156.9	243.83	-634.77	124.48	284.95	77.979	44.963	414.46	-630.93	93.408	254.27	98.353	27.486	449.44	-621.48	92.755	318.08	103.9	27.902	389.36	-49.76	362.22	500.28	17.906	382.99	521.58	51.68	316.61	506.4	1.1249	295.87	492.57	-147.74	803.17	543.58	-86.067	841.34	549.85	-56.554	755.64	537.72	-115.12	719.94	529.28	-291.48	456.24	220.26	-341.86	478.11	208.42	-372.95	424.05	218.53	-321.32	409.24	228.13	-176.8	776.05	172.31	-242.99	798.22	155.85	-250.83	723.37	170.98	-190.38	704.27	185.88
184	0.76464	136.21	1722.7	302.21	-114.31	1525.9	541.02	-108.12	1526.3	80.072	-99.072	1067.5	517.91	-117.18	998.21	165.13	-322.79	1059.3	408.97	-319.39	1070.1	276.69	-339.76	1036.7	341.91	-138.49	1122.2	125.48	-139.84	1166.5	528.82	-198.59	928.2	130.69	-147.75	953.23	563.87	-26.725	563.31	497.46	-7.3874	569.38	364.09	-280.83	540.35	361.71	-296.45	549.45	204.84	358.19	215.15	413.66	-319.34	71.428	276.84	301.59	153.92	365.37	-403.36	58.448	331.05	-432.98	51.813	205.11	282.82	128.5	496.4	151.38	124.32	473.82	148.72	133.86	372.54	-497.28	156.95	312.95	-530.55	157.87	243.78	-634.04	126	284.86	80.441	44.65	414.21	-630.39	94.901	254.22	100.86	27.164	449.18	-620.94	94.229	318	105.94	27.175	389.04	-44.38	361.76	500.67	23.604	382.22	521.24	56.91	315.68	505.85	6.1223	295.15	492.58	-141.48	802.46	543.87	-79.833	840.75	549.85	-50.286	755.1	537.57	-108.84	719.3	529.43	-288.63	455.71	220.28	-338.88	477.9	208.43	-370.31	424.03	218.53	-318.77	408.9	228.13	-172.89	775.3	172.5	-239.03	797.69	156.13	-247.11	722.84	171.23	-186.66	703.56	186
185	0.76882	141.11	1722.2	303.23	-108.89	1524.6	542.07	-103.08	1525.7	81.157	-93.091	1066.7	518.11	-112.55	997.35	165.34	-317.32	1058.6	410.05	-314.37	1069.4	277.79	-334.46	1035.9	343.02	-133.81	1121.7	125.95	-134.01	1165.5	529.47	-194.23	927.53	131.07	-141.47	952.45	564.18	-20.584	562.7	497.3	-2.1335	568.59	364.01	-277.36	539.76	361.73	-292.88	548.95	204.89	362.08	211.49	410.66	-318.97	71.15	276.8	304.49	150.63	363.11	-403.01	58.631	331.02	-432.65	52.085	205.08	286.43	126.09	494.36	155.03	123.14	472.94	151.58	132.28	371.55	-496.28	157.73	312.89	-529.51	158.89	243.74	-633.26	127.6	284.77	82.58	44.438	414.02	-629.81	96.484	254.18	103.02	26.933	448.97	-620.37	95.785	317.92	107.63	26.513	388.77	-39.041	361.37	501.09	29.278	381.49	520.91	62.071	314.77	505.29	11.041	294.47	492.61	-135.2	801.78	544.15	-73.576	840.2	549.85	-43.994	754.58	537.43	-102.54	718.69	529.58	-285.67	455.17	220.31	-335.78	477.69	208.44	-367.57	424.01	218.54	-316.12	408.56	228.14	-168.89	774.56	172.7	-235	797.15	156.43	-243.31	722.29	171.49	-182.85	702.84	186.14
186	0.773	146.02	1721.7	304.23	-103.46	1523.4	543.14	-98.022	1525.2	82.259	-87.079	1066	518.33	-107.86	996.49	165.57	-311.83	1057.8	411.12	-309.32	1068.6	278.87	-329.12	1035.2	344.12	-129.1	1121.1	126.43	-128.14	1164.5	530.13	-189.81	926.86	131.47	-135.15	951.69	564.49	-14.443	562.14	497.13	3.0888	567.82	363.91	-273.76	539.16	361.77	-289.18	548.44	204.95	365.89	207.5	407.68	-318.58	70.86	276.76	307.23	147.09	360.89	-402.63	58.83	330.99	-432.31	52.385	205.04	289.81	123.52	492.35	158.49	121.96	472.11	154.26	130.68	370.58	-495.22	158.56	312.84	-528.41	159.98	243.71	-632.42	129.31	284.71	84.439	44.335	413.86	-629.18	98.164	254.14	104.88	26.798	448.8	-619.75	97.431	317.86	109	25.93	388.56	-33.742	361.04	501.55	34.923	380.8	520.58	67.167	313.9	504.74	15.89	293.83	492.67	-128.91	801.15	544.44	-67.308	839.67	549.84	-37.692	754.09	537.28	-96.228	718.12	529.74	-282.61	454.63	220.35	-332.57	477.48	208.47	-364.71	424.01	218.56	-313.37	408.22	228.17	-164.83	773.82	172.91	-230.89	796.6	156.75	-239.41	721.73	171.76	-178.95	702.13	186.3
187	0.77718	150.94	1721.2	305.23	-98.012	1522.1	544.23	-92.963	1524.6	83.376	-81.044	1065.3	518.57	-103.11	995.65	165.82	-306.31	1057	412.18	-304.24	1067.9	279.93	-323.75	1034.4	345.21	-124.34	1120.4	126.92	-122.24	1163.6	530.82	-185.33	926.18	131.89	-128.79	950.98	564.82	-8.3155	561.63	496.98	8.2613	567.08	363.81	-270.01	538.55	361.82	-285.34	547.93	205.03	369.63	203.22	404.77	-318.17	70.557	276.72	309.82	143.34	358.74	-402.22	59.044	330.97	-431.95	52.713	205	293.01	120.79	490.41	161.79	120.8	471.31	156.8	129.09	369.66	-494.1	159.45	312.81	-527.25	161.13	243.7	-631.51	131.11	284.65	86.058	44.346	413.75	-628.5	99.949	254.13	106.47	26.762	448.67	-619.07	99.175	317.82	110.1	25.439	388.39	-28.482	360.78	502.03	40.535	380.17	520.25	72.2	313.07	504.19	20.674	293.26	492.75	-122.63	800.55	544.72	-61.038	839.18	549.83	-31.397	753.63	537.15	-89.927	717.58	529.9	-279.42	454.09	220.4	-329.23	477.29	208.52	-361.75	424.03	218.6	-310.51	407.9	228.21	-160.68	773.09	173.14	-226.71	796.04	157.08	-235.42	721.16	172.05	-174.96	701.41	186.46
